<svg width="24" height="24" viewBox="0 0 24 24" fill="none" xmlns="http://www.w3.org/2000/svg">
<path fill-rule="evenodd" clip-rule="evenodd" d="M19.9496 11.7494C19.7287 11.7494 19.5043 11.6863 19.3055 11.5554C18.7666 11.1988 18.6194 10.4729 18.9759 9.93517C19.4248 9.25717 19.6621 8.46578 19.6621 7.6475C19.6621 6.82922 19.4248 6.03783 18.9759 5.36099C18.6194 4.8221 18.7666 4.09733 19.3055 3.73963C19.8433 3.38309 20.5692 3.53155 20.9257 4.06928C21.6295 5.1307 22 6.36865 22 7.6475C22 8.92636 21.6295 10.1643 20.9257 11.2257C20.7013 11.5659 20.3284 11.7494 19.9496 11.7494Z" fill="black"/>
<path fill-rule="evenodd" clip-rule="evenodd" d="M4.05038 11.7494C3.67163 11.7494 3.29873 11.5659 3.07428 11.2257C2.37056 10.1643 2 8.92636 2 7.6475C2 6.36865 2.37056 5.1307 3.07428 4.06928C3.43082 3.53155 4.15558 3.38309 4.69448 3.73963C5.23337 4.09733 5.38067 4.8221 5.02413 5.36099C4.57524 6.03783 4.33794 6.82922 4.33794 7.6475C4.33794 8.46578 4.57524 9.25717 5.02413 9.93517C5.38067 10.4729 5.23337 11.1988 4.69448 11.5554C4.49575 11.6863 4.27131 11.7494 4.05038 11.7494Z" fill="black"/>
<path fill-rule="evenodd" clip-rule="evenodd" d="M11.9998 15.1709C6.17956 15.1709 3.57275 18.3902 3.57275 21.5815C3.57275 21.8142 3.6651 22.0374 3.82993 22.2023C3.99358 22.3659 4.21686 22.4583 4.44948 22.4583L19.5502 22.4372C20.0342 22.4361 20.4258 22.0433 20.4258 21.5605C20.4258 18.3797 17.8201 15.1709 11.9998 15.1709Z" fill="black"/>
<path fill-rule="evenodd" clip-rule="evenodd" d="M12.0006 13.3986C15.1428 13.3986 17.6993 10.8409 17.6993 7.69874C17.6993 4.55654 15.1428 2 12.0006 2C8.85842 2 6.30188 4.55654 6.30188 7.69874C6.30188 10.8409 8.85842 13.3986 12.0006 13.3986Z" fill="black"/>
</svg>
