<svg width="25" height="25" viewBox="0 0 25 25" fill="none" xmlns="http://www.w3.org/2000/svg">
<path fill-rule="evenodd" clip-rule="evenodd" d="M20.4496 12.2494C20.2287 12.2494 20.0043 12.1863 19.8055 12.0554C19.2666 11.6988 19.1194 10.9729 19.4759 10.4352C19.9248 9.75717 20.1621 8.96578 20.1621 8.1475C20.1621 7.32922 19.9248 6.53783 19.4759 5.86099C19.1194 5.3221 19.2666 4.59733 19.8055 4.23963C20.3433 3.88309 21.0692 4.03155 21.4257 4.56928C22.1295 5.6307 22.5 6.86865 22.5 8.1475C22.5 9.42636 22.1295 10.6643 21.4257 11.7257C21.2013 12.0659 20.8284 12.2494 20.4496 12.2494Z" fill="#2C2F43"/>
<path fill-rule="evenodd" clip-rule="evenodd" d="M4.55038 12.2494C4.17163 12.2494 3.79873 12.0659 3.57428 11.7257C2.87056 10.6643 2.5 9.42636 2.5 8.1475C2.5 6.86865 2.87056 5.6307 3.57428 4.56928C3.93082 4.03155 4.65558 3.88309 5.19448 4.23963C5.73337 4.59733 5.88067 5.3221 5.52413 5.86099C5.07524 6.53783 4.83794 7.32922 4.83794 8.1475C4.83794 8.96578 5.07524 9.75717 5.52413 10.4352C5.88067 10.9729 5.73337 11.6988 5.19448 12.0554C4.99575 12.1863 4.77131 12.2494 4.55038 12.2494Z" fill="#2C2F43"/>
<path fill-rule="evenodd" clip-rule="evenodd" d="M12.4998 15.6709C6.67956 15.6709 4.07275 18.8902 4.07275 22.0815C4.07275 22.3142 4.1651 22.5374 4.32993 22.7023C4.49358 22.8659 4.71686 22.9583 4.94948 22.9583L20.0502 22.9372C20.5342 22.9361 20.9258 22.5433 20.9258 22.0605C20.9258 18.8797 18.3201 15.6709 12.4998 15.6709Z" fill="#2C2F43"/>
<path fill-rule="evenodd" clip-rule="evenodd" d="M12.5006 13.8986C15.6428 13.8986 18.1993 11.3409 18.1993 8.19874C18.1993 5.05654 15.6428 2.5 12.5006 2.5C9.35842 2.5 6.80188 5.05654 6.80188 8.19874C6.80188 11.3409 9.35842 13.8986 12.5006 13.8986Z" fill="#2C2F43"/>
</svg>
