<svg width="25" height="25" viewBox="0 0 25 25" fill="none" xmlns="http://www.w3.org/2000/svg">
<path d="M10.4632 19.7279C10.9631 19.6222 14.0093 19.6222 14.5092 19.7279C14.9366 19.8266 15.3987 20.0573 15.3987 20.5608C15.3738 21.0402 15.0926 21.4653 14.704 21.7352C14.2001 22.128 13.6088 22.3767 12.9906 22.4664C12.6487 22.5107 12.3128 22.5117 11.9828 22.4664C11.3636 22.3767 10.7723 22.128 10.2694 21.7342C9.87978 21.4653 9.59852 21.0402 9.57367 20.5608C9.57367 20.0573 10.0358 19.8266 10.4632 19.7279ZM12.5452 2.5C14.6254 2.5 16.7502 3.48702 18.0125 5.12466C18.8314 6.17916 19.2071 7.23265 19.2071 8.8703V9.29633C19.2071 10.5523 19.539 11.2925 20.2695 12.1456C20.8231 12.7741 21 13.5808 21 14.456C21 15.3302 20.7128 16.1601 20.1373 16.8339C19.384 17.6417 18.3215 18.1573 17.2372 18.247C15.6659 18.3809 14.0937 18.4937 12.5005 18.4937C10.9063 18.4937 9.33505 18.4263 7.76375 18.247C6.67846 18.1573 5.61602 17.6417 4.86367 16.8339C4.28822 16.1601 4 15.3302 4 14.456C4 13.5808 4.1779 12.7741 4.73049 12.1456C5.48384 11.2925 5.79392 10.5523 5.79392 9.29633V8.8703C5.79392 7.18834 6.21333 6.08852 7.077 5.01186C8.36106 3.4417 10.4194 2.5 12.4558 2.5H12.5452Z" fill="#2C2F43"/>
</svg>
