<svg width="25" height="25" viewBox="0 0 25 25" fill="none" xmlns="http://www.w3.org/2000/svg">
<path fill-rule="evenodd" clip-rule="evenodd" d="M19.545 11.897C19.145 11.207 18.765 10.547 18.765 8.99697C18.765 8.75697 18.745 8.52697 18.705 8.28697C18.145 8.60697 17.505 8.77697 16.825 8.77697C14.655 8.77697 12.885 7.00697 12.885 4.83697C12.885 4.24697 13.015 3.68697 13.255 3.18697C13.015 3.15697 12.765 3.14697 12.505 3.14697C8.75504 3.14697 6.23504 6.17697 6.23504 8.99697C6.23504 10.547 5.85504 11.207 5.45504 11.907C5.06504 12.577 4.66504 13.277 4.66504 14.647V14.687C4.92504 17.807 7.73504 18.417 12.505 18.417C17.265 18.417 20.075 17.807 20.335 14.647C20.335 13.277 19.935 12.577 19.545 11.897Z" fill="#2C2F43"/>
<path fill-rule="evenodd" clip-rule="evenodd" d="M14.6372 19.8755H10.4352C10.1462 19.8755 9.88422 20.0415 9.75922 20.3005C9.63422 20.5615 9.66922 20.8695 9.84922 21.0945C10.5152 21.9245 11.4922 22.4005 12.5322 22.4005C13.5772 22.4005 14.5572 21.9245 15.2222 21.0945C15.4032 20.8695 15.4382 20.5605 15.3132 20.3005C15.1882 20.0415 14.9262 19.8755 14.6372 19.8755Z" fill="#2C2F43"/>
<path fill-rule="evenodd" clip-rule="evenodd" d="M16.8251 7.07861C18.0591 7.07861 19.0641 6.07361 19.0641 4.83861C19.0641 3.60361 18.0591 2.59961 16.8251 2.59961C15.5911 2.59961 14.5861 3.60361 14.5861 4.83861C14.5861 6.07361 15.5911 7.07861 16.8251 7.07861Z" fill="#F43A25"/>
</svg>
