<svg width="25" height="25" viewBox="0 0 25 25" fill="none" xmlns="http://www.w3.org/2000/svg">
<path fill-rule="evenodd" clip-rule="evenodd" d="M13.914 12.5002L19.207 7.20725C19.598 6.81625 19.598 6.18425 19.207 5.79325C18.816 5.40225 18.184 5.40225 17.793 5.79325L12.5 11.0862L7.20701 5.79325C6.81601 5.40225 6.18401 5.40225 5.79301 5.79325C5.40201 6.18425 5.40201 6.81625 5.79301 7.20725L11.086 12.5002L5.79301 17.7933C5.40201 18.1842 5.40201 18.8162 5.79301 19.2072C5.98801 19.4022 6.24401 19.5002 6.50001 19.5002C6.75601 19.5002 7.01201 19.4022 7.20701 19.2072L12.5 13.9143L17.793 19.2072C17.988 19.4022 18.244 19.5002 18.5 19.5002C18.756 19.5002 19.012 19.4022 19.207 19.2072C19.598 18.8162 19.598 18.1842 19.207 17.7933L13.914 12.5002Z" fill="#2C2F43"/>
</svg>
