<svg width="24" height="24" viewBox="0 0 24 24" fill="#2c2f43" xmlns="http://www.w3.org/2000/svg">
<path d="M11.9263 13.2086C13.5265 13.2086 14.8243 11.8999 14.8243 10.2846C14.8243 8.66942 13.5265 7.35986 11.9263 7.35986C10.3256 7.35986 9.02783 8.66937 9.02783 10.2846C9.02783 11.8999 10.3255 13.2086 11.9263 13.2086Z" fill="#2c2f43"/>
<path d="M18.273 3.21544C18.0198 2.94141 17.5943 2.92701 17.3231 3.18249C17.0516 3.43792 16.6833 4.70789 16.6859 4.71042C16.6884 4.71284 17.9691 4.42856 18.2403 4.17303C18.5119 3.9176 18.5262 3.48903 18.273 3.21544Z" fill="#2c2f43"/>
<path d="M16.7683 7.24609C17.0822 7.09121 17.2125 6.7092 17.0591 6.39192C16.9054 6.07508 16.5264 5.944 16.2125 6.09853C15.8985 6.25346 15.2201 7.29517 15.2216 7.29849C15.2227 7.30136 16.4543 7.40146 16.7683 7.24609Z" fill="#2c2f43"/>
<path d="M15.3825 4.44689C15.5667 4.03401 15.3841 3.54858 14.975 3.36322C14.5654 3.17691 14.0849 3.36114 13.9005 3.77402C13.7167 4.18691 13.8941 5.77704 13.8982 5.77867C13.9023 5.7803 15.1987 4.85933 15.3825 4.44689Z" fill="#2c2f43"/>
<path d="M8.29521 17.9034V19.9827C8.29521 20.9663 10.4871 21.6997 12.0002 21.6997C13.5133 21.6997 15.7049 20.9663 15.7049 19.9827V17.9034L22.6608 10.0637C23.1444 9.52797 23.1064 8.6985 22.5758 8.21064C22.0449 7.7223 21.222 7.76104 20.7385 8.2959L15.5475 12.8079C13.5086 14.5798 10.4915 14.5798 8.45298 12.8079L3.26168 8.2959C2.77797 7.76104 1.95546 7.7223 1.42451 8.21064C0.89357 8.6985 0.85561 9.52797 1.33918 10.0637L8.29521 17.9034Z" fill="#2c2f43"/>
</svg>
