<svg width="25" height="25" viewBox="0 0 25 25" fill="none" xmlns="http://www.w3.org/2000/svg">
<path fill-rule="evenodd" clip-rule="evenodd" d="M19.9654 3.94914C19.7224 3.82014 19.4234 3.83414 19.1944 3.98914C19.1714 4.00314 16.9134 5.46914 12.6434 3.64114C7.54245 1.46214 4.96545 3.95114 4.85745 4.05814C4.71645 4.19914 4.63745 4.38914 4.63745 4.58914V21.5011C4.63745 21.9151 4.97345 22.2511 5.38745 22.2511C5.80145 22.2511 6.13745 21.9151 6.13745 21.5011V14.5481C6.76145 14.1201 8.67545 13.1771 12.0524 14.6211C17.0694 16.7681 19.9144 14.9161 20.0314 14.8351C20.2384 14.6951 20.3624 14.4631 20.3624 14.2131V4.61114C20.3624 4.33414 20.2094 4.08014 19.9654 3.94914Z" fill="#2C2F43"/>
</svg>
