<svg width="25" height="25" viewBox="0 0 25 25" fill="none" xmlns="http://www.w3.org/2000/svg">
<path fill-rule="evenodd" clip-rule="evenodd" d="M16.583 10.13H15.7C15.595 10.776 15.362 11.559 15.087 12.19C14.758 12.945 14.248 13.802 13.507 14.626C14.219 15.177 15.088 15.638 16.165 15.878C16.569 15.969 16.824 16.369 16.733 16.774C16.655 17.123 16.346 17.36 16.002 17.36C15.948 17.36 15.893 17.355 15.838 17.343C14.415 17.025 13.3 16.386 12.415 15.659C11.532 16.36 10.422 16.983 9.009 17.417C8.936 17.44 8.861 17.45 8.788 17.45C8.468 17.45 8.171 17.243 8.072 16.921C7.95 16.525 8.172 16.105 8.568 15.984C9.699 15.636 10.595 15.152 11.322 14.609C10.772 13.976 10.371 13.35 10.104 12.859C9.906 12.494 10.041 12.039 10.405 11.841C10.769 11.644 11.224 11.777 11.422 12.142C11.674 12.606 12.01 13.111 12.43 13.602C13.58 12.316 14.017 10.929 14.176 10.13H8.418C8.004 10.13 7.668 9.794 7.668 9.38C7.668 8.966 8.004 8.63 8.418 8.63H11.75V8.3C11.75 7.886 12.086 7.55 12.5 7.55C12.914 7.55 13.25 7.886 13.25 8.3V8.63H16.583C16.997 8.63 17.333 8.966 17.333 9.38C17.333 9.794 16.997 10.13 16.583 10.13ZM16.718 3H8.283C5.123 3 3 5.223 3 8.53V16.47C3 19.777 5.123 22 8.283 22H16.717C19.877 22 22 19.777 22 16.47V8.53C22 5.223 19.877 3 16.718 3Z" fill="#2C2F43"/>
</svg>
