<svg width="42" height="42" viewBox="0 0 42 42" fill="none" xmlns="http://www.w3.org/2000/svg">
<rect x="41.4617" y="16.2329" width="30" height="30" rx="15" transform="rotate(122.759 41.4617 16.2329)" fill="#257BF4"/>
<rect x="44.9168" y="15.4833" width="35" height="35" rx="17.5" transform="rotate(122.759 44.9168 15.4833)" stroke="#257BF4" stroke-opacity="0.15" stroke-width="5"/>
<path fill-rule="evenodd" clip-rule="evenodd" d="M15.2181 16.9355C15.173 16.9779 15.1413 17.0321 15.1273 17.0925C14.7989 18.5225 19.1344 25.3792 20.7724 27.0136C21.1991 27.4395 21.6014 27.5722 21.9661 27.4077C23.0224 26.932 23.0574 23.7308 22.997 22.0153L19.1485 19.8004C18.9255 19.672 18.8488 19.3873 18.9771 19.1642C19.1054 18.9412 19.3902 18.8645 19.6132 18.9928L23.4984 21.2293C25.0261 20.4053 27.6898 18.7993 27.5719 17.6651C27.5675 17.6226 27.5601 17.5808 27.5493 17.5407C27.4598 17.2085 27.1512 16.9702 26.6315 16.8317C24.3971 16.2365 16.2911 15.9318 15.2181 16.9355Z" fill="white"/>
</svg>
