<svg width="72" height="34" viewBox="0 0 72 34" fill="none" xmlns="http://www.w3.org/2000/svg">
<path d="M36.8618 7.12012L40.5535 18.3635L43.4224 7.12012H46.5359L42.1103 22.705H39.0857L35.4829 11.662L31.8579 22.705H28.8334L24.4077 7.12012H27.6324L30.5013 18.3857L34.193 7.12012H36.8618Z" fill="#257BF4"/>
<path d="M48.3296 9.96999C47.4177 9.96999 46.6838 9.25754 46.6838 8.34471C46.6838 7.43189 47.4177 6.7417 48.3296 6.7417C49.2414 6.7417 49.9308 7.43189 49.9308 8.34471C49.9308 9.25754 49.2414 9.96999 48.3296 9.96999ZM49.7751 11.1945V22.7051H46.8618V11.1945H49.7751Z" fill="#257BF4"/>
<path d="M55.5283 22.9724C52.5038 22.9724 50.6579 21.2803 50.2131 19.0762H52.9708C53.2599 20.2339 54.2829 20.7237 55.5283 20.7237C56.5958 20.7237 57.1741 20.2339 57.1741 19.5437C57.1741 19.0762 56.796 18.6754 56.0176 18.4751L53.638 17.9185C51.503 17.4064 50.4133 16.2932 50.4133 14.5343C50.4133 12.3302 52.2369 10.9053 54.7055 10.9053C57.6411 10.9053 59.4202 12.6419 59.7538 14.846H57.0184C56.707 13.6438 55.6395 13.1539 54.6832 13.1539C53.7492 13.1539 53.2599 13.6215 53.2599 14.2226C53.2599 14.8238 53.727 15.2245 54.6388 15.4471L56.8405 15.9815C58.9532 16.4936 59.9985 17.6068 59.9985 19.3211C59.9985 21.3917 58.3083 22.9724 55.5283 22.9724Z" fill="#257BF4"/>
<path d="M60.1239 16.9386C60.1239 13.7325 62.6814 10.9272 66.0841 10.9272C69.5312 10.9272 71.9775 13.4876 71.9775 17.0721V17.9182H63.104C63.482 19.4099 64.7275 20.5008 66.3287 20.5008C67.5519 20.5008 68.5081 20.0778 69.3532 18.9868L71.377 20.5008C70.2206 22.0816 68.4859 22.9944 66.3509 22.9944C62.8371 22.9944 60.1239 20.4563 60.1239 16.9386ZM66.0173 13.4208C64.6607 13.4208 63.5488 14.2891 63.1485 15.6918H69.0419C68.6193 14.2669 67.4184 13.4208 66.0173 13.4208Z" fill="#257BF4"/>
<path d="M3.00232 22.705H0V7.12012H6.33822C8.98471 7.12012 11.0752 9.16841 11.0752 11.7733C11.0752 13.6658 9.89653 15.2688 8.22857 15.959L12.0982 22.705H8.71784L5.18178 16.3375H3.00232V22.705ZM5.84896 9.74728H3.00232V13.8216H5.84896C7.18332 13.8216 8.05066 12.931 8.05066 11.7733C8.05066 10.6156 7.18332 9.74728 5.84896 9.74728Z" fill="#003172"/>
<path d="M13.0479 9.96999C12.1361 9.96999 11.4022 9.25754 11.4022 8.34471C11.4022 7.43189 12.1361 6.7417 13.0479 6.7417C13.9597 6.7417 14.6492 7.43189 14.6492 8.34471C14.6492 9.25754 13.9597 9.96999 13.0479 9.96999ZM14.4935 11.1945V22.7051H11.5801V11.1945H14.4935Z" fill="#003172"/>
<path d="M14.9316 11.1947H17.8228V12.2856C18.8458 11.4173 20.1357 10.9053 21.5367 10.9053C24.9616 10.9053 27.6748 13.6438 27.6748 16.9611C27.6748 20.3007 24.9616 23.0169 21.5367 23.0169C20.1357 23.0169 18.868 22.5049 17.845 21.6588V27.3807H14.9316V11.1947ZM17.8005 16.9611C17.8005 18.9203 19.3573 20.4566 21.2921 20.4566C23.2047 20.4566 24.7837 18.9203 24.7837 16.9611C24.7837 15.0241 23.2047 13.4434 21.2921 13.4434C19.3573 13.4434 17.8005 15.0241 17.8005 16.9611Z" fill="#003172"/>
</svg>
