<svg width="24" height="24" viewBox="0 0 24 24" fill="none" xmlns="http://www.w3.org/2000/svg">
<path fill-rule="evenodd" clip-rule="evenodd" d="M12.0176 4.5275C12.4876 4.5275 12.8676 4.1465 12.8676 3.6775V3.6475C12.8676 3.1785 12.4876 2.8125 12.0176 2.8125C11.5476 2.8125 11.1676 3.2085 11.1676 3.6775C11.1676 4.1465 11.5476 4.5275 12.0176 4.5275Z" fill="black"/>
<path fill-rule="evenodd" clip-rule="evenodd" d="M3.05962 13.4977C3.52962 13.4977 3.88462 13.1167 3.88462 12.6477C3.88462 12.1787 3.48062 11.7977 3.01062 11.7977C2.54062 11.7977 2.16162 12.1787 2.16162 12.6477C2.16162 13.1167 2.54062 13.4977 3.01062 13.4977H3.05962Z" fill="black"/>
<path fill-rule="evenodd" clip-rule="evenodd" d="M5.69243 7.15779C5.89943 7.15779 6.10643 7.08279 6.27043 6.93079C6.61443 6.61179 6.63443 6.07479 6.31543 5.72979L6.29643 5.70979C5.97743 5.36579 5.44843 5.35479 5.10543 5.67479C4.76043 5.99279 4.75043 6.54079 5.06943 6.88579C5.23643 7.06579 5.46343 7.15779 5.69243 7.15779Z" fill="black"/>
<path fill-rule="evenodd" clip-rule="evenodd" d="M18.9766 18.401C18.6646 18.052 18.1496 18.047 17.7986 18.359C17.4496 18.672 17.4416 19.234 17.7536 19.584C17.9216 19.772 18.1546 19.868 18.3876 19.868C18.5896 19.868 18.7916 19.797 18.9546 19.651C19.3036 19.339 19.3336 18.801 19.0216 18.451L18.9766 18.401Z" fill="black"/>
<path fill-rule="evenodd" clip-rule="evenodd" d="M20.9678 11.7975C20.4978 11.7975 20.1178 12.1785 20.1178 12.6475C20.1178 13.1165 20.4978 13.4975 20.9678 13.4975H21.0108C21.4808 13.4975 21.8388 13.1165 21.8388 12.6475C21.8388 12.1785 21.4378 11.7975 20.9678 11.7975Z" fill="black"/>
<path fill-rule="evenodd" clip-rule="evenodd" d="M17.7539 5.69103L17.7089 5.74103C17.3969 6.09103 17.4489 6.60403 17.7989 6.91703C17.9549 7.05503 18.1509 7.12203 18.3499 7.12203C18.5979 7.12203 18.8479 7.01803 19.0219 6.82403C19.3339 6.47403 19.3039 5.93603 18.9539 5.62403C18.6059 5.31103 18.0669 5.34003 17.7539 5.69103Z" fill="black"/>
<path fill-rule="evenodd" clip-rule="evenodd" d="M10.8496 7.32922C8.74588 7.7963 7.19956 9.43488 6.73598 11.4052C6.68512 11.6214 6.8941 11.7996 7.11097 11.7519C7.44355 11.6787 7.7983 11.6372 8.17861 11.6372C10.5132 11.6372 11.9609 13.0896 12.6019 14.6259C12.6346 14.7041 12.697 14.766 12.7751 14.7987C13.7077 15.1898 14.4373 15.8898 14.8771 16.7901C14.9617 16.9633 15.1803 17.0325 15.3322 16.9138C16.9293 15.6658 17.7692 13.5743 17.3086 11.4712C16.6696 8.55022 13.7786 6.69022 10.8496 7.32922Z" fill="black"/>
<path fill-rule="evenodd" clip-rule="evenodd" d="M11.287 16.4653C11.1233 16.4468 10.9907 16.3143 10.9686 16.151C10.835 15.1631 10.0539 13.6376 8.1788 13.6376C6.30284 13.6376 5.52166 15.1631 5.38801 16.151C5.36592 16.3143 5.23332 16.4468 5.06959 16.4654C3.90735 16.5972 3.0108 17.4527 3.0108 18.8276C3.0108 19.7876 3.5848 20.6176 4.4098 20.9976C4.7568 21.1376 5.1028 21.1876 5.3648 21.1876H10.9878C11.2508 21.1876 11.5968 21.1376 11.9488 20.9976C12.7738 20.6176 13.3448 19.7876 13.3448 18.8276C13.3448 17.4526 12.4499 16.5971 11.287 16.4653Z" fill="black"/>
</svg>