<svg width="24" height="25" viewBox="0 0 24 25" fill="none" xmlns="http://www.w3.org/2000/svg">
<path fill-rule="evenodd" clip-rule="evenodd" d="M12.0176 5.0275C12.4876 5.0275 12.8676 4.6465 12.8676 4.1775V4.1475C12.8676 3.6785 12.4876 3.3125 12.0176 3.3125C11.5476 3.3125 11.1676 3.7085 11.1676 4.1775C11.1676 4.6465 11.5476 5.0275 12.0176 5.0275Z" fill="#2C2F43"/>
<path fill-rule="evenodd" clip-rule="evenodd" d="M3.05962 13.9977C3.52962 13.9977 3.88462 13.6167 3.88462 13.1477C3.88462 12.6787 3.48062 12.2977 3.01062 12.2977C2.54062 12.2977 2.16162 12.6787 2.16162 13.1477C2.16162 13.6167 2.54062 13.9977 3.01062 13.9977H3.05962Z" fill="#2C2F43"/>
<path fill-rule="evenodd" clip-rule="evenodd" d="M5.69243 7.65779C5.89943 7.65779 6.10643 7.58279 6.27043 7.43079C6.61443 7.11179 6.63443 6.57479 6.31543 6.22979L6.29643 6.20979C5.97743 5.86579 5.44843 5.85479 5.10543 6.17479C4.76043 6.49279 4.75043 7.04079 5.06943 7.38579C5.23643 7.56579 5.46343 7.65779 5.69243 7.65779Z" fill="#2C2F43"/>
<path fill-rule="evenodd" clip-rule="evenodd" d="M18.9766 18.901C18.6646 18.552 18.1496 18.547 17.7986 18.859C17.4496 19.172 17.4416 19.734 17.7536 20.084C17.9216 20.272 18.1546 20.368 18.3876 20.368C18.5896 20.368 18.7916 20.297 18.9546 20.151C19.3036 19.839 19.3336 19.301 19.0216 18.951L18.9766 18.901Z" fill="#2C2F43"/>
<path fill-rule="evenodd" clip-rule="evenodd" d="M20.9678 12.2975C20.4978 12.2975 20.1178 12.6785 20.1178 13.1475C20.1178 13.6165 20.4978 13.9975 20.9678 13.9975H21.0108C21.4808 13.9975 21.8388 13.6165 21.8388 13.1475C21.8388 12.6785 21.4378 12.2975 20.9678 12.2975Z" fill="#2C2F43"/>
<path fill-rule="evenodd" clip-rule="evenodd" d="M17.7539 6.19103L17.7089 6.24103C17.3969 6.59103 17.4489 7.10403 17.7989 7.41703C17.9549 7.55503 18.1509 7.62203 18.3499 7.62203C18.5979 7.62203 18.8479 7.51803 19.0219 7.32403C19.3339 6.97403 19.3039 6.43603 18.9539 6.12403C18.6059 5.81103 18.0669 5.84003 17.7539 6.19103Z" fill="#2C2F43"/>
<path fill-rule="evenodd" clip-rule="evenodd" d="M10.8496 7.82922C8.74588 8.2963 7.19956 9.93488 6.73598 11.9052C6.68512 12.1214 6.8941 12.2996 7.11097 12.2519C7.44355 12.1787 7.7983 12.1372 8.17861 12.1372C10.5132 12.1372 11.9609 13.5896 12.6019 15.1259C12.6346 15.2041 12.697 15.266 12.7751 15.2987C13.7077 15.6898 14.4373 16.3898 14.8771 17.2901C14.9617 17.4633 15.1803 17.5325 15.3322 17.4138C16.9293 16.1658 17.7692 14.0743 17.3086 11.9712C16.6696 9.05022 13.7786 7.19022 10.8496 7.82922Z" fill="#2C2F43"/>
<path fill-rule="evenodd" clip-rule="evenodd" d="M11.287 16.9653C11.1233 16.9468 10.9907 16.8143 10.9686 16.651C10.835 15.6631 10.0539 14.1376 8.1788 14.1376C6.30284 14.1376 5.52166 15.6631 5.38801 16.651C5.36592 16.8143 5.23332 16.9468 5.06959 16.9654C3.90735 17.0972 3.0108 17.9527 3.0108 19.3276C3.0108 20.2876 3.5848 21.1176 4.4098 21.4976C4.7568 21.6376 5.1028 21.6876 5.3648 21.6876H10.9878C11.2508 21.6876 11.5968 21.6376 11.9488 21.4976C12.7738 21.1176 13.3448 20.2876 13.3448 19.3276C13.3448 17.9526 12.4499 17.0971 11.287 16.9653Z" fill="#2C2F43"/>
</svg>
